<?xml version="1.0" encoding="UTF-8" standalone="no"?>
<!-- Created with Inkscape (http://www.inkscape.org/) -->

<svg
   width="116"
   height="42"
   viewBox="0 0 30.691683 11.112506"
   version="1.1"
   id="svg5"
   xmlns="http://www.w3.org/2000/svg"
   xmlns:svg="http://www.w3.org/2000/svg">
  <defs
     id="defs2" />
  <g
     id="layer1">
    <circle
       id="path122"
       style="fill:#ffffff;stroke:#000000;stroke-width:0.264583"
       cx="4.9529748"
       cy="11.467699"
       r="0.005943526" />
    <g
       id="g28835">
      <g
         id="g256"
         transform="matrix(0.02049142,0.00337667,-0.00329032,0.02000477,22.79125,-0.21248348)">
        <g
           id="g252">
          <g
             id="g250">
            <path
               d="m 405.996,459.09 h 0.01 z"
               id="path248" />
          </g>
        </g>
        <path
           d="m 422.346,430.817 c -3.952,-13.796 -13.617,-25.377 -26.521,-31.79 13.526,-6.746 27.955,-24.925 27.773,-42.678 -0.127,-12.414 -8.463,-23.195 -21.235,-27.468 -3.927,-1.314 -8.177,0.805 -9.492,4.733 -1.315,3.928 0.805,8.178 4.733,9.492 5.026,1.682 10.921,6.199 10.995,13.397 0.112,10.93 -10.417,24.641 -19.549,29.145 -10.711,5.281 -22.087,6.072 -30.321,5.679 -1.662,-7.923 -5.84,-14.93 -11.656,-20.147 3.762,-7.318 10.136,-16.763 20.163,-23.445 0.785,-0.523 1.602,-1.022 2.429,-1.484 3.616,-2.02 4.911,-6.589 2.891,-10.205 -2.02,-3.617 -6.59,-4.91 -10.205,-2.891 -1.14,0.636 -2.266,1.325 -3.352,2.046 0.92,-15.087 -7.61,-36.671 -23.074,-45.389 -11.638,-6.561 -26.242,-3.944 -36.343,6.51 -9.972,10.32 -15.168,24.48 -14.271,38.862 -3.668,-2.427 -8.216,-4.432 -13.194,-5.838 V 273.37 c 0,-9.113 -3.097,-18.082 -8.721,-25.252 l -26.331,-33.577 v -27.117 h 5.324 c 7.713,0 13.989,-6.275 13.989,-13.989 v -39.056 c 0,-7.713 -6.275,-13.989 -13.989,-13.989 H 214.898 V 34.798 C 214.897,15.61 199.287,0 180.099,0 160.911,0 145.301,15.61 145.301,34.798 v 85.594 H 117.81 c -7.713,0 -13.989,6.275 -13.989,13.989 v 39.056 c 0,7.713 6.275,13.989 13.989,13.989 h 5.324 v 27.116 l -9.992,12.742 c -2.556,3.259 -1.986,7.974 1.274,10.53 3.259,2.555 7.973,1.986 10.53,-1.274 l 9.202,-11.734 h 91.902 l 25.542,32.57 c 3.562,4.542 5.524,10.223 5.524,15.996 v 53.757 c -8.014,-0.136 -16.05,1.441 -22.653,5.344 -11.5,6.798 -16.537,20.755 -12.533,34.729 3.952,13.796 13.616,25.377 26.521,31.79 -13.526,6.746 -27.955,24.925 -27.773,42.678 0.137,13.359 9.706,24.699 23.81,28.22 4.063,1.014 8.204,1.513 12.332,1.513 0.099,0 0.198,-0.005 0.296,-0.005 v 9.411 c 0,8.802 -7.161,15.963 -15.962,15.963 H 119.045 c -8.802,0 -15.962,-7.161 -15.962,-15.963 v -58.581 h 71.99 c 9.635,0 17.474,-7.839 17.474,-17.474 v -87.929 c 0,-9.635 -7.839,-17.474 -17.474,-17.474 h -71.99 v -25.978 c 0,-3.602 0.733,-7.101 2.178,-10.401 1.662,-3.794 -0.067,-8.217 -3.861,-9.879 -3.794,-1.662 -8.218,0.067 -9.879,3.861 -2.281,5.208 -3.438,10.733 -3.438,16.418 v 207.436 c 0,17.073 13.89,30.963 30.962,30.963 h 122.108 c 17.073,0 30.962,-13.89 30.962,-30.963 v -11.741 c 4.619,-1.438 9.058,-3.525 13.162,-6.249 -0.92,15.087 7.61,36.671 23.074,45.389 4.274,2.41 8.948,3.581 13.653,3.581 8.104,0 16.299,-3.477 22.69,-10.091 9.972,-10.32 15.168,-24.48 14.271,-38.863 7.374,4.879 18.284,8.07 29.135,8.07 7.7,0 15.368,-1.607 21.712,-5.357 11.5,-6.798 16.537,-20.755 12.534,-34.73 z M 160.301,34.798 c 0,-10.917 8.881,-19.798 19.798,-19.798 10.917,0 19.798,8.881 19.798,19.798 v 85.594 h -39.596 z m 61.763,175.007 h -83.929 v -22.38 h 83.929 z m -103.243,-37.38 v -37.033 h 122.555 v 37.033 z m -15.738,141.924 h 71.99 c 1.364,0 2.474,1.11 2.474,2.474 v 87.929 c 0,1.364 -1.11,2.474 -2.474,2.474 h -71.99 z m 133.266,48.721 c -1.743,-6.082 -0.642,-13.909 5.746,-17.685 9.41,-5.562 26.548,-3.3 35.015,2.357 9.939,6.641 16.312,16.109 20.089,23.441 -5.816,5.218 -9.994,12.226 -11.654,20.151 -8.216,0.397 -19.574,-0.407 -30.361,-5.744 -9.169,-4.536 -16.034,-12.744 -18.835,-22.52 z m 40.69,87.214 c -8.512,5.673 -19.053,7.514 -28.919,5.051 -6.139,-1.532 -12.368,-6.399 -12.444,-13.819 -0.112,-10.93 10.417,-24.641 19.549,-29.145 10.707,-5.279 22.087,-6.075 30.321,-5.684 1.661,7.925 5.839,14.933 11.657,20.151 -3.762,7.318 -10.135,16.763 -20.164,23.446 z m 33.328,-143.538 c 4.396,-4.551 11.727,-7.509 18.19,-3.867 9.521,5.368 16.131,21.342 15.465,31.502 -0.782,11.926 -5.788,22.175 -10.245,29.105 -3.666,-1.204 -7.576,-1.865 -11.64,-1.865 -4.053,0 -7.953,0.657 -11.61,1.855 -4.467,-6.951 -9.478,-17.219 -10.246,-29.159 -0.655,-10.21 3.02,-20.259 10.086,-27.571 z m 23.541,184.527 c -4.396,4.55 -11.727,7.511 -18.19,3.867 -9.521,-5.368 -16.131,-21.342 -15.465,-31.502 0.782,-11.924 5.788,-22.174 10.245,-29.105 3.666,1.204 7.576,1.865 11.64,1.865 4.052,0 7.952,-0.656 11.609,-1.854 4.467,6.949 9.479,17.215 10.247,29.159 0.655,10.209 -3.021,20.258 -10.086,27.57 z m -11.771,-69.876 c -12.345,0 -22.388,-10.043 -22.388,-22.388 0,-12.345 10.043,-22.388 22.388,-22.388 12.345,0 22.388,10.043 22.388,22.388 0,12.345 -10.043,22.388 -22.388,22.388 z m 80.042,31.237 c -9.409,5.562 -26.548,3.3 -35.015,-2.357 -9.941,-6.643 -16.313,-16.111 -20.089,-23.441 5.816,-5.218 9.993,-12.225 11.653,-20.149 8.217,-0.398 19.573,0.405 30.361,5.741 9.169,4.537 16.035,12.745 18.835,22.52 1.744,6.083 0.643,13.91 -5.745,17.686 z"
           id="path254" />
      </g>
      <g
         aria-label="AROMA SPA"
         transform="scale(1.0255502,0.97508633)"
         id="text2769"
         style="font-weight:300;font-size:5.78866px;line-height:1.65;font-family:'Open Sans';-inkscape-font-specification:'Open Sans Light';letter-spacing:0.461284px;stroke-width:0.271343">
        <path
           d="M 2.8210643,7.3429731 H 1.1421268 L 0.56552197,8.8014441 H 0.24612813 L 1.9081067,4.6521506 H 2.0918288 L 3.7198895,8.8014441 H 3.3948426 Z M 1.2467071,7.0829356 H 2.7249635 L 2.1624912,5.5933732 Q 2.0918288,5.4181305 1.9929015,5.1072162 1.9165862,5.3785596 1.8261384,5.5990262 Z"
           id="path28573" />
        <path
           d="M 5.0545601,7.0009673 V 8.8014441 H 4.7662577 V 4.6691096 h 0.9836199 q 0.7688064,0 1.1362507,0.2854759 0.3674442,0.2826494 0.3674442,0.8536012 0,0.4154947 -0.2204665,0.7009706 Q 6.8154659,6.7946332 6.3688799,6.9189989 L 7.490998,8.8014441 H 7.1461657 L 6.0805774,7.0009673 Z m 0,-0.2487315 h 0.7885918 q 0.5229015,0 0.8112039,-0.2317725 0.2883024,-0.2345991 0.2883024,-0.6896646 0,-0.4720245 -0.2826494,-0.6868381 Q 6.3773593,4.929147 5.7385717,4.929147 H 5.0545601 Z"
           id="path28575" />
        <path
           d="m 12.141146,6.7296238 q 0,0.98362 -0.49181,1.5573983 -0.49181,0.5709518 -1.356717,0.5709518 -0.8620806,0 -1.3538906,-0.5709518 -0.4918099,-0.5737783 -0.4918099,-1.5630513 0,-0.9864464 0.4946364,-1.5517453 0.497463,-0.5681253 1.3567171,-0.5681253 0.864907,0 1.353891,0.5709518 0.488983,0.5681254 0.488983,1.5545718 z m -3.3804867,0 q 0,0.8875192 0.3957092,1.3736762 0.3957092,0.4833305 1.1362505,0.4833305 0.746195,0 1.139077,-0.480504 0.395709,-0.480504 0.395709,-1.3765027 0,-0.8931721 -0.395709,-1.3680231 -0.392882,-0.4776776 -1.133424,-0.4776776 -0.7377148,0 -1.139077,0.480504 -0.3985357,0.4805041 -0.3985357,1.3651967 z"
           id="path28577" />
        <path
           d="m 15.369569,8.8014441 -1.54044,-3.8157672 h -0.02261 q 0.02261,0.3504853 0.02261,0.7179295 V 8.8014441 H 13.552133 V 4.6691096 h 0.446586 l 1.464124,3.6348715 h 0.01696 l 1.464124,-3.6348715 h 0.43528 v 4.1323345 h -0.29113 V 5.6696885 q 0,-0.3278733 0.03392,-0.6783586 h -0.02261 l -1.546092,3.8101142 z"
           id="path28579" />
        <path
           d="m 20.997683,7.3429731 h -1.678938 l -0.576604,1.458471 h -0.319394 l 1.661978,-4.1492935 h 0.183722 l 1.628061,4.1492935 H 21.571461 Z M 19.423326,7.0829356 h 1.478256 L 20.33911,5.5933732 q -0.07066,-0.1752427 -0.16959,-0.486157 -0.07631,0.2713434 -0.166763,0.49181 z"
           id="path28581" />
      </g>
    </g>
  </g>
</svg>
